<svg width="287px" height="66px" viewBox="0 0 287 66" version="1.1" xmlns="http://www.w3.org/2000/svg" xmlns:xlink="http://www.w3.org/1999/xlink">
    <title>Primary_HORIZ_w</title>
    <g id="Page-1" stroke="none" stroke-width="1" fill="none" fill-rule="evenodd">
        <g id="Primary_HORIZ_w" fill="#FFFFFF" fill-rule="nonzero">
            <polygon id="Path" points="78.87 53.23 78.87 19.67 84.87 19.67 96.6 40.26 108.28 19.67 114.28 19.67 114.28 53.23 109.39 53.23 109.39 26.67 98.89 45.18 94.26 45.18 83.76 26.79 83.76 53.23"></polygon>
            <path d="M131.52,53.81 C129.39421,53.8571677 127.297919,53.3062414 125.47,52.22 C123.731352,51.1610789 122.32739,49.6323213 121.42,47.81 C120.427552,45.7759381 119.94044,43.5324794 120,41.27 C119.952038,38.9988671 120.449267,36.749333 121.45,34.71 C122.359698,32.8840186 123.762703,31.3493735 125.5,30.28 C127.327919,29.1937586 129.42421,28.6428323 131.55,28.69 L132.08,28.69 C134.034224,28.6518559 135.956784,29.1872524 137.61,30.23 C139.254827,31.326072 140.546904,32.8751753 141.33,34.69 C142.282556,36.8977466 142.743216,39.2863545 142.68,41.69 L142.68,43.15 L124.93,43.15 C125.114659,44.9058649 125.898656,46.5444889 127.15,47.79 C128.417962,48.9486745 130.094075,49.5565352 131.81,49.48 L132.29,49.48 C133.431609,49.4846573 134.560733,49.2424587 135.6,48.77 C136.610616,48.3311284 137.517084,47.683651 138.26,46.87 L141.26,49.98 C140.134147,51.1768339 138.77207,52.1268828 137.26,52.77 C135.632802,53.4504073 133.883604,53.7907181 132.12,53.77 L131.52,53.81 Z M131.38,33 C129.78196,32.9526594 128.234597,33.5636508 127.1,34.69 C125.898411,35.9524175 125.137217,37.569516 124.93,39.3 L137.83,39.3 C137.731315,37.6617681 137.122939,36.0953741 136.09,34.82 C135.036399,33.5930875 133.475306,32.9214114 131.86,33 L131.38,33 Z" id="Shape"></path>
            <path d="M148.25,63.3 L148.25,29.3 L153.05,29.3 L153.05,33 C153.810879,31.635317 154.940661,30.5124671 156.31,29.76 C157.686605,29.0222892 159.228354,28.647176 160.79,28.67 L161.32,28.67 C163.296971,28.6294271 165.239551,29.1909269 166.89,30.28 C168.509393,31.3987989 169.789502,32.9418491 170.59,34.74 C172.358506,38.892894 172.358506,43.587106 170.59,47.74 C169.789502,49.5381509 168.509393,51.0812011 166.89,52.2 C165.242591,53.2966931 163.298616,53.8620862 161.32,53.82 L160.79,53.82 C159.264916,53.8390652 157.757032,53.4963642 156.39,52.82 C155.029862,52.1345646 153.876968,51.0990309 153.05,49.82 L153.05,63.3 L148.25,63.3 Z M159.64,49.37 L160.12,49.37 C162.020485,49.4617507 163.859817,48.6855525 165.12,47.26 C166.450084,45.553756 167.108302,43.4189962 166.97,41.26 C167.105496,39.101336 166.447579,36.9675493 165.12,35.26 C163.859817,33.8344475 162.020485,33.0582493 160.12,33.15 L159.64,33.15 C158.251674,33.1368274 156.897999,33.5833643 155.79,34.42 C154.598308,35.3308775 153.655856,36.5278607 153.05,37.9 L153.05,44.66 C153.655792,46.0294048 154.598409,47.2231565 155.79,48.13 C156.901812,48.9559354 158.255147,49.3918146 159.64,49.37 Z" id="Shape"></path>
            <path d="M177.64,53.23 L177.64,18.23 L182.43,18.23 L182.43,33.23 C183.250507,31.8687826 184.381274,30.720883 185.73,29.88 C187.113218,29.0459816 188.705225,28.6228339 190.32,28.66 L190.85,28.66 C193.286224,28.5124215 195.642544,29.5563608 197.17,31.46 C198.63,33.3333333 199.36,35.9633333 199.36,39.35 L199.36,53.23 L194.56,53.23 L194.56,40 C194.56,35.46 192.92,33.19 189.62,33.19 L189.14,33.19 C187.626333,33.1441034 186.15002,33.6647354 185,34.65 C183.834386,35.6837655 182.953036,36.9989044 182.44,38.47 L182.44,53.23 L177.64,53.23 Z" id="Path"></path>
            <path d="M209.08,25 C208.216257,25.0470645 207.374236,24.7190045 206.77,24.1 C206.195013,23.479088 205.889388,22.6556975 205.92,21.81 C205.882207,20.9601759 206.188639,20.1310062 206.77,19.51 C208.08926,18.3238759 210.09074,18.3238759 211.41,19.51 C211.984807,20.1344018 212.287104,20.9621177 212.25,21.81 C212.280063,22.6537819 211.978539,23.4757929 211.41,24.1 C210.801085,24.7244325 209.950568,25.0529585 209.08,25 L209.08,25 Z M206.69,53.23 L206.69,29.23 L211.48,29.23 L211.48,53.23 L206.69,53.23 Z" id="Shape"></path>
            <path d="M227.87,53.81 C225.733348,53.8605108 223.610186,53.4583711 221.64,52.63 C219.90948,51.8583161 218.407635,50.6527062 217.28,49.13 L220.54,46.13 C222.234475,48.4303637 224.965984,49.7323331 227.82,49.6 L228.3,49.6 C229.568427,49.6684453 230.833747,49.4174442 231.98,48.87 C232.793094,48.4796733 233.304651,47.6518106 233.29,46.75 C233.305826,46.0241258 232.993563,45.3297996 232.44,44.86 C231.51509,44.2153983 230.448173,43.8037261 229.33,43.66 L225.23,42.79 C220.47,41.8033333 218.09,39.5833333 218.09,36.13 C218.031327,34.0129313 219.004599,31.9992664 220.7,30.73 C222.710735,29.2806632 225.154379,28.5577959 227.63,28.68 L228.16,28.68 C231.870202,28.4923028 235.420533,30.2071654 237.58,33.23 L234.32,36 C233.60223,34.9921747 232.642901,34.1806994 231.53,33.64 C230.454806,33.1586497 229.287945,32.9164067 228.11,32.93 L227.63,32.93 C226.432699,32.8807308 225.242406,33.1353022 224.17,33.67 C223.352426,34.052993 222.832907,34.877193 222.84,35.78 C222.828622,36.4306506 223.13451,37.046157 223.66,37.43 C224.522648,37.9353661 225.47238,38.2745562 226.46,38.43 L231.25,39.43 C233.080695,39.7647699 234.787257,40.5869598 236.19,41.81 C237.442533,43.0260491 238.103326,44.7273188 238,46.47 C238.040737,48.5078742 237.136177,50.4499087 235.55,51.73 C233.91,53.11 231.55,53.81 228.37,53.81 L227.87,53.81 Z" id="Path"></path>
            <path d="M254.4,53.5402742 C251.55,53.5402742 249.4,52.82 247.9,51.39 C246.4,49.96 245.67,47.73 245.67,44.75 L245.67,33.43 L241,33.43 L241,29.26 L245.7,29.26 L245.7,22.12 L250.49,22.12 L250.49,29.26 L258.57,29.26 L258.57,33.43 L250.49,33.43 L250.49,44.1 C250.49,45.98 250.89,47.29 251.67,48.03 C252.643002,48.8277255 253.885117,49.2214797 255.14,49.13 C255.80777,49.1343887 256.475323,49.1043488 257.14,49.04 L258.95,48.8 L258.95,53 C258.237662,53.1718231 257.516629,53.3053479 256.79,53.4 C255.997132,53.4975594 255.198836,53.5443214 254.4,53.5402742 L254.4,53.5402742 Z" id="Path"></path>
            <path d="M274.48,53.81 C272.257871,53.8635786 270.064041,53.30301 268.14,52.19 C266.368055,51.1222234 264.933141,49.5763981 264,47.73 C262.046339,43.6168662 262.046339,38.8431338 264,34.73 C264.940103,32.8846295 266.382069,31.3421426 268.16,30.28 C270.086803,29.1748014 272.27934,28.6180217 274.5,28.67 L275,28.67 C277.224093,28.6156737 279.420468,29.1725498 281.35,30.28 C283.122189,31.3461426 284.55994,32.8878274 285.5,34.73 C287.453661,38.8431338 287.453661,43.6168662 285.5,47.73 C284.564145,49.5777238 283.125636,51.123687 281.35,52.19 C279.42324,53.305283 277.225563,53.8659504 275,53.81 L274.48,53.81 Z M274.48,49.35 L275,49.35 C276.967994,49.4441405 278.870237,48.6294201 280.16,47.14 C281.461722,45.461841 282.114973,43.3707259 282,41.25 C282.111355,39.1187483 281.447057,37.0192838 280.13,35.34 C278.836507,33.8567551 276.935801,33.0463767 274.97,33.14 L274.5,33.14 C272.53791,33.0509617 270.642162,33.8607958 269.35,35.34 C268.026095,37.0161524 267.3578,39.1170153 267.47,41.25 C267.361797,43.3763363 268.02992,45.4695503 269.35,47.14 C270.639763,48.6294201 272.542006,49.4441405 274.51,49.35 L274.48,49.35 Z" id="Shape"></path>
            <path d="M60.4,5.09 L44.58,5.09 C47.9238419,10.9784474 47.1435445,18.343007 42.64,23.4 C42.4231822,23.6481977 42.1095631,23.7904203 41.78,23.79 C41.4932467,23.792187 41.2156757,23.6889875 41,23.5 C40.93433,23.4350664 40.874126,23.3648285 40.82,23.29 C40.5140849,22.8518127 40.5471188,22.2613315 40.9,21.86 C43.1037535,19.3808115 44.3176216,16.177054 44.31,12.86 C43.9195356,5.6893654 37.9912578,0.075119038 30.81,0.075119038 C23.6287422,0.075119038 17.7004644,5.6893654 17.31,12.86 C17.3023784,16.177054 18.5162465,19.3808115 20.72,21.86 C21.0728812,22.2613315 21.1059151,22.8518127 20.8,23.29 C20.745874,23.3648285 20.68567,23.4350664 20.62,23.5 C20.1409049,23.9075327 19.4253362,23.8633618 19,23.4 C16.4254382,20.5002461 15.0024354,16.7577488 15,12.88 C14.9789792,10.1537259 15.6682624,7.4689677 17,5.09 L1.2,5.09 C0.80235498,5.09 0.48,5.41235498 0.48,5.81 L0.48,65 C0.48,65.397645 0.80235498,65.72 1.2,65.72 L17.93,65.72 C18.327645,65.72 18.65,65.397645 18.65,65 L18.65,56.24 C18.6554698,55.8407428 18.9807053,55.5199625 19.38,55.52 L42.24,55.52 C42.637645,55.52 42.96,55.842355 42.96,56.24 L42.96,65 C42.96,65.397645 43.282355,65.72 43.68,65.72 L60.4,65.72 C60.7992947,65.72 61.1245302,65.3992572 61.13,65 L61.13,5.81 C61.1245302,5.41074277 60.7992947,5.08996253 60.4,5.09 L60.4,5.09 Z M21.64,12.09 C21.64,11.89 21.66,11.69 21.7,11.49 C22.0609055,8.85289349 23.5450459,6.50087736 25.77,5.04 C28.8248105,3.02681283 32.7851895,3.02681283 35.84,5.04 C38.0702792,6.50024508 39.5556504,8.85786122 39.91,11.5 C39.9408776,11.6987625 39.9609072,11.8990591 39.9700314,12.1 C39.9700314,12.3 39.9700314,12.51 39.9700314,12.72 C39.9744795,14.4233649 39.4997328,16.0936415 38.6,17.54 C38.3851122,17.8836397 38.0052008,18.0887918 37.6,18.08 C37.3964477,18.1054958 37.1897612,18.0779376 37,18 C36.4602157,17.6573471 36.2954491,16.9448429 36.63,16.4 C37.2936138,15.320883 37.640156,14.0767966 37.63,12.81 C37.7118098,9.85589431 35.8952614,7.18047438 33.1193496,6.16669571 C30.3434379,5.15291704 27.2302384,6.02796518 25.3890001,8.33951762 C23.5477618,10.6510701 23.391102,13.881113 25,16.36 C25.3396551,16.9122847 25.1672847,17.6353448 24.615,17.975 C24.0627152,18.3146551 23.3396551,18.1422847 23,17.59 C22.1082091,16.1406493 21.637312,14.4717348 21.64,12.77 C21.62,12.56 21.63,12.35 21.64,12.14 L21.64,12.09 Z M33.28,12.58 C33.2839863,13.1672548 33.0742902,13.7359222 32.69,14.18 C32.0207142,14.9754757 30.9249864,15.2667413 29.9490465,14.9085982 C28.9731066,14.5504552 28.3258741,13.6195711 28.33,12.58 C28.3147125,12.4537946 28.3147125,12.3262054 28.33,12.2 C28.3460353,12.0746056 28.3728001,11.9508183 28.41,11.83 C28.7297056,10.7948761 29.6866288,10.0889033 30.77,10.0889033 C31.8533712,10.0889033 32.8102944,10.7948761 33.13,11.83 C33.1705416,11.9505281 33.2006524,12.0743166 33.22,12.2 C33.2532826,12.3411642 33.2733691,12.485117 33.28,12.63 L33.28,12.58 Z M44.56,53.16 C44.5545302,53.5592572 44.2292947,53.8800375 43.83,53.88 L17.83,53.88 C17.4307053,53.8800375 17.1054698,53.5592572 17.1,53.16 L17.1,52.38 C17.1,52.186392 17.1769105,52.0007136 17.313812,51.863812 C17.4507136,51.7269105 17.636392,51.65 17.83,51.65 L43.83,51.65 C44.2331679,51.65 44.56,51.9768321 44.56,52.38 L44.56,53.16 Z M47.47,48.52 L47.18,49.62 C47.0916471,49.9349187 46.8070314,50.1544794 46.48,50.16 L15.32,50.16 C15.0064964,50.158788 14.7287735,49.9575396 14.63,49.66 L14.27,48.56 C14.1796744,48.3331973 14.2087004,48.0762555 14.3473465,47.8753191 C14.4859926,47.6743827 14.7159045,47.5560522 14.96,47.56 L46.78,47.56 C47.0157047,47.5563303 47.238277,47.6682758 47.3758594,47.8596948 C47.5134418,48.0511138 47.5486063,48.2977587 47.47,48.52 Z M49.59,28.21 L44.59,43.8 C44.5115415,44.1228999 44.2222952,44.3500001 43.89,44.3500001 L17.67,44.3500001 C17.352606,44.327359 17.084047,44.1069001 17,43.8 L12,28.21 C11.9417797,27.9440154 12.038584,27.6679411 12.2501644,27.496561 C12.4617448,27.3251809 12.7519032,27.2878154 13,27.4 L22.71,32.71 C23.0309244,32.8907322 23.4365011,32.8001247 23.65,32.5 L23.88,32.17 L24.43,31.4 L25,30.61 L26.47,28.54 L26.6,28.36 L26.6,28.36 L26.69,28.22 L26.74,28.14 L28.31,25.78 L30.2,23 C30.3325923,22.7944977 30.5604353,22.6703524 30.805,22.6703524 C31.0495647,22.6703524 31.2774077,22.7944977 31.41,23 L33.24,25.75 L34.79,28.11 L34.85,28.19 L34.94,28.34 L35.07,28.52 L36.48,30.52 L37.05,31.31 L37.6,32.08 L37.9,32.5 C38.10991,32.7986832 38.5121125,32.8895031 38.83,32.71 L48.54,27.4 C48.7919265,27.257971 49.1043852,27.280463 49.3333722,27.4571101 C49.5623591,27.6337572 49.6634285,27.9302725 49.59,28.21 Z" id="Shape"></path>
        </g>
    </g>
</svg>