<svg xmlns="http://www.w3.org/2000/svg" viewBox="0 0 167.52 161.59"><defs><style>.cls-1{fill:#fff;}</style></defs><g id="logos"><path class="cls-1" d="M126.42,37.37h-22.8a22.81,22.81,0,0,1-2.8,26.39,1.69,1.69,0,0,1-1.25.56,1.65,1.65,0,0,1-1.1-.42,3.65,3.65,0,0,1-.27-.3,1.67,1.67,0,0,1,.12-2.06,19.49,19.49,0,0,0,4.92-12.95,19.48,19.48,0,0,0-38.95,0A19.48,19.48,0,0,0,69.2,61.54a1.67,1.67,0,0,1,.12,2.06,3.48,3.48,0,0,1-.26.3,1.68,1.68,0,0,1-2.36-.14,22.81,22.81,0,0,1-2.8-26.39H41.1a1,1,0,0,0-1,1v85.31a1,1,0,0,0,1,1H65.21a1,1,0,0,0,1-1V111.08a1,1,0,0,1,1-1h32.95a1,1,0,0,1,1,1v12.64a1,1,0,0,0,1,1h24.1a1,1,0,0,0,1-1V38.41A1,1,0,0,0,126.42,37.37ZM70.55,47.53c0-.29,0-.58.09-.86a13.23,13.23,0,0,1,5.87-9.3,13.24,13.24,0,0,1,20.37,9.31,7.81,7.81,0,0,1,.09.86c0,.29,0,.59,0,.89a13.11,13.11,0,0,1-2,7,1.67,1.67,0,1,1-2.84-1.77,9.77,9.77,0,0,0,1.47-5.18,9.9,9.9,0,1,0-18.34,5.18,1.67,1.67,0,1,1-2.83,1.77,13.11,13.11,0,0,1-2-7Q70.52,48,70.55,47.53Zm16.78.71a3.55,3.55,0,0,1-.85,2.31,3.57,3.57,0,0,1-5.44,0,3.55,3.55,0,0,1-.85-2.31,2.5,2.5,0,0,1,0-.55,2.62,2.62,0,0,1,.12-.54,3.57,3.57,0,0,1,6.8,0,5.23,5.23,0,0,1,.12.54A3.31,3.31,0,0,1,87.33,48.24Zm16.25,58.4a1,1,0,0,1-1,1H65a1,1,0,0,1-1-1v-1.13a1,1,0,0,1,1-1h37.54a1,1,0,0,1,1,1Zm4.2-6.69-.43,1.59a1,1,0,0,1-1,.77H61.45a1,1,0,0,1-1-.71L59.94,100a1,1,0,0,1,1-1.37h45.85A1,1,0,0,1,107.78,100Zm3-29.26L103.7,93.16a1,1,0,0,1-1,.78H64.83a1,1,0,0,1-1-.78L56.7,70.69a1,1,0,0,1,1.51-1.17l14,7.65a1,1,0,0,0,1.35-.3l.33-.47.8-1.12.81-1.14,2.13-3,.18-.26h0l.14-.2.07-.11,2.25-3.41,2.64-4a1,1,0,0,1,1.74,0l2.63,4,2.23,3.39.08.12.14.21.19.27,2,2.84.82,1.14.79,1.12.43.6a1,1,0,0,0,1.35.3l14-7.65A1,1,0,0,1,110.83,70.69Z"/></g></svg>